<svg xmlns="http://www.w3.org/2000/svg" xmlns:xlink="http://www.w3.org/1999/xlink" width="100" zoomAndPan="magnify" viewBox="0 0 75 74.999997" height="100" preserveAspectRatio="xMidYMid meet" version="1.0"><defs><clipPath id="id1"><path d="M 20 18.28125 L 55 18.28125 L 55 56.53125 L 20 56.53125 Z M 20 18.28125 " clip-rule="nonzero"/></clipPath></defs><rect x="-7.5" width="90" fill="#ffffff" y="-7.5" height="89.999996" fill-opacity="1"/><rect x="-7.5" width="90" fill="#ffffff" y="-7.5" height="89.999996" fill-opacity="1"/><rect x="-7.5" width="90" fill="#ffffff" y="-7.5" height="89.999996" fill-opacity="1"/><rect x="-7.5" width="90" fill="#ffffff" y="-7.5" height="89.999996" fill-opacity="1"/><g clip-path="url(#id1)"><path fill="#ccd6dd" d="M 53.34375 21.46875 C 45.90625 18.28125 37.40625 18.28125 37.40625 18.28125 C 37.40625 18.28125 28.90625 18.28125 21.46875 21.46875 C 18.28125 37.40625 21.46875 51.21875 37.40625 56.53125 C 53.34375 51.21875 56.53125 37.40625 53.34375 21.46875 Z M 53.34375 21.46875 " fill-opacity="1" fill-rule="nonzero"/></g><path fill="#f79924" d="M 37.40625 54.285156 C 25.09375 49.871094 20.367188 39.351562 23.339844 23.003906 C 30.035156 20.4375 37.332031 20.40625 37.40625 20.40625 C 37.484375 20.40625 44.800781 20.449219 51.476562 23.003906 C 54.449219 39.351562 49.71875 49.871094 37.40625 54.285156 Z M 37.40625 54.285156 " fill-opacity="1" fill-rule="nonzero"/><path fill="#f36c29" d="M 51.476562 23.003906 C 44.800781 20.449219 37.484375 20.40625 37.40625 20.40625 L 37.40625 54.285156 C 49.71875 49.871094 54.449219 39.351562 51.476562 23.003906 Z M 51.476562 23.003906 " fill-opacity="1" fill-rule="nonzero"/></svg>