<svg xmlns="http://www.w3.org/2000/svg" xmlns:xlink="http://www.w3.org/1999/xlink" width="100" zoomAndPan="magnify" viewBox="0 0 75 74.999997" height="100" preserveAspectRatio="xMidYMid meet" version="1.0"><defs><clipPath id="id1"><path d="M 28 17.914062 L 56.914062 17.914062 L 56.914062 45 L 28 45 Z M 28 17.914062 " clip-rule="nonzero"/></clipPath><clipPath id="id2"><path d="M 30 17.914062 L 56.914062 17.914062 L 56.914062 47 L 30 47 Z M 30 17.914062 " clip-rule="nonzero"/></clipPath><clipPath id="id3"><path d="M 18 50 L 25 50 L 25 56.914062 L 18 56.914062 Z M 18 50 " clip-rule="nonzero"/></clipPath></defs><rect x="-7.5" width="90" fill="#ffffff" y="-7.5" height="89.999996" fill-opacity="1"/><rect x="-7.5" width="90" fill="#ffffff" y="-7.5" height="89.999996" fill-opacity="1"/><rect x="-7.5" width="90" fill="#ffffff" y="-7.5" height="89.999996" fill-opacity="1"/><rect x="-7.5" width="90" fill="#ffffff" y="-7.5" height="89.999996" fill-opacity="1"/><g clip-path="url(#id1)"><path fill="#8ba0b0" d="M 56.921875 17.988281 L 30.085938 44.824219 L 28.226562 42.964844 L 45.210938 21.800781 L 56.921875 17.988281 " fill-opacity="1" fill-rule="nonzero"/></g><g clip-path="url(#id2)"><path fill="#687785" d="M 56.851562 17.917969 L 30.015625 44.753906 L 31.871094 46.613281 L 53.039062 29.628906 L 56.851562 17.917969 " fill-opacity="1" fill-rule="nonzero"/></g><path fill="#f79924" d="M 36.542969 51.28125 L 31.335938 43.5 L 23.554688 38.296875 C 23.554688 38.296875 19.921875 39.496094 19.972656 43.042969 C 20.023438 46.589844 23.359375 46.007812 24.472656 44.894531 C 25.585938 43.78125 23.625 42.671875 23.625 42.671875 C 26.0625 42.140625 28.902344 45.9375 28.902344 45.9375 C 28.902344 45.9375 32.695312 48.777344 32.167969 51.214844 C 32.167969 51.214844 31.058594 49.253906 29.945312 50.367188 C 28.832031 51.476562 28.25 54.8125 31.796875 54.867188 C 35.34375 54.921875 36.542969 51.28125 36.542969 51.28125 " fill-opacity="1" fill-rule="nonzero"/><path fill="#f79924" d="M 30.40625 47.296875 L 29.855469 44.984375 L 27.539062 44.433594 C 27.539062 44.433594 25.507812 48.578125 21.804688 50.167969 L 23.238281 51.601562 L 24.671875 53.03125 C 26.261719 49.332031 30.40625 47.296875 30.40625 47.296875 " fill-opacity="1" fill-rule="nonzero"/><g clip-path="url(#id3)"><path fill="#f36c29" d="M 23.875 55.621094 C 22.585938 56.910156 20.5 56.910156 19.214844 55.621094 C 17.929688 54.335938 17.929688 52.253906 19.214844 50.964844 C 20.5 49.679688 22.585938 49.679688 23.875 50.964844 C 25.160156 52.253906 25.160156 54.335938 23.875 55.621094 " fill-opacity="1" fill-rule="nonzero"/></g></svg>